<svg viewBox="0 0 900 420" xmlns="http://www.w3.org/2000/svg" font-family="monospace">
  <defs>
    <linearGradient id="bgGrad" x1="0%" y1="0%" x2="100%" y2="100%">
      <stop offset="0%" style="stop-color:#0a0e1a"/>
      <stop offset="100%" style="stop-color:#0f1428"/>
    </linearGradient>
    <linearGradient id="purpleGrad" x1="0%" y1="0%" x2="100%" y2="100%">
      <stop offset="0%" style="stop-color:#6c63ff"/>
      <stop offset="100%" style="stop-color:#4ea0ff"/>
    </linearGradient>
    <linearGradient id="cyanGrad" x1="0%" y1="0%" x2="100%" y2="0%">
      <stop offset="0%" style="stop-color:#00d4ff;stop-opacity:0.8"/>
      <stop offset="100%" style="stop-color:#6c63ff;stop-opacity:0.8"/>
    </linearGradient>
    <filter id="glow">
      <feGaussianBlur stdDeviation="3" result="coloredBlur"/>
      <feMerge><feMergeNode in="coloredBlur"/><feMergeNode in="SourceGraphic"/></feMerge>
    </filter>
    <radialGradient id="nodeGlow" cx="50%" cy="50%" r="50%">
      <stop offset="0%" style="stop-color:#6c63ff;stop-opacity:0.5"/>
      <stop offset="100%" style="stop-color:#6c63ff;stop-opacity:0"/>
    </radialGradient>
    <clipPath id="clip">
      <rect width="900" height="420" rx="16"/>
    </clipPath>
  </defs>

  <!-- Background -->
  <rect width="900" height="420" rx="16" fill="url(#bgGrad)"/>

  <!-- Subtle grid -->
  <g opacity="0.04" stroke="#ffffff" stroke-width="1">
    <line x1="0" y1="60" x2="900" y2="60"/>
    <line x1="0" y1="120" x2="900" y2="120"/>
    <line x1="0" y1="180" x2="900" y2="180"/>
    <line x1="0" y1="240" x2="900" y2="240"/>
    <line x1="0" y1="300" x2="900" y2="300"/>
    <line x1="0" y1="360" x2="900" y2="360"/>
    <line x1="60" y1="0" x2="60" y2="420"/>
    <line x1="120" y1="0" x2="120" y2="420"/>
    <line x1="180" y1="0" x2="180" y2="420"/>
    <line x1="240" y1="0" x2="240" y2="420"/>
    <line x1="300" y1="0" x2="300" y2="420"/>
    <line x1="360" y1="0" x2="360" y2="420"/>
    <line x1="420" y1="0" x2="420" y2="420"/>
    <line x1="480" y1="0" x2="480" y2="420"/>
    <line x1="540" y1="0" x2="540" y2="420"/>
    <line x1="600" y1="0" x2="600" y2="420"/>
    <line x1="660" y1="0" x2="660" y2="420"/>
    <line x1="720" y1="0" x2="720" y2="420"/>
    <line x1="780" y1="0" x2="780" y2="420"/>
    <line x1="840" y1="0" x2="840" y2="420"/>
  </g>

  <!-- Neural network nodes — left cluster -->
  <!-- Connections first (behind nodes) -->
  <g opacity="0.25" stroke="#6c63ff" stroke-width="1.5" fill="none">
    <line x1="120" y1="140" x2="220" y2="100"/>
    <line x1="120" y1="140" x2="220" y2="180"/>
    <line x1="120" y1="280" x2="220" y2="240"/>
    <line x1="120" y1="280" x2="220" y2="320"/>
    <line x1="220" y1="100" x2="340" y2="140"/>
    <line x1="220" y1="180" x2="340" y2="140"/>
    <line x1="220" y1="240" x2="340" y2="280"/>
    <line x1="220" y1="320" x2="340" y2="280"/>
    <line x1="220" y1="100" x2="340" y2="60"/>
    <line x1="220" y1="320" x2="340" y2="360"/>
  </g>
  <g opacity="0.15" stroke="#00d4ff" stroke-width="1" fill="none">
    <line x1="340" y1="140" x2="440" y2="120"/>
    <line x1="340" y1="140" x2="440" y2="210"/>
    <line x1="340" y1="280" x2="440" y2="210"/>
    <line x1="340" y1="280" x2="440" y2="300"/>
    <line x1="340" y1="60" x2="440" y2="120"/>
    <line x1="340" y1="360" x2="440" y2="300"/>
  </g>

  <!-- Layer 1 nodes -->
  <circle cx="120" cy="140" r="12" fill="url(#nodeGlow)"/>
  <circle cx="120" cy="140" r="7" fill="#6c63ff" filter="url(#glow)"/>
  <circle cx="120" cy="280" r="12" fill="url(#nodeGlow)"/>
  <circle cx="120" cy="280" r="7" fill="#6c63ff" filter="url(#glow)"/>

  <!-- Layer 2 nodes -->
  <circle cx="220" cy="100" r="7" fill="#7b6fff" opacity="0.9"/>
  <circle cx="220" cy="180" r="7" fill="#7b6fff" opacity="0.9"/>
  <circle cx="220" cy="240" r="7" fill="#7b6fff" opacity="0.9"/>
  <circle cx="220" cy="320" r="7" fill="#7b6fff" opacity="0.9"/>

  <!-- Layer 3 nodes -->
  <circle cx="340" cy="60" r="7" fill="#4ea0ff" opacity="0.8"/>
  <circle cx="340" cy="140" r="9" fill="#4ea0ff" filter="url(#glow)" opacity="0.95"/>
  <circle cx="340" cy="280" r="9" fill="#4ea0ff" filter="url(#glow)" opacity="0.95"/>
  <circle cx="340" cy="360" r="7" fill="#4ea0ff" opacity="0.8"/>

  <!-- Layer 4 output nodes -->
  <circle cx="440" cy="120" r="7" fill="#00d4ff" opacity="0.85"/>
  <circle cx="440" cy="210" r="11" fill="#00d4ff" filter="url(#glow)"/>
  <circle cx="440" cy="300" r="7" fill="#00d4ff" opacity="0.85"/>

  <!-- Code editor panel — right side -->
  <rect x="500" y="50" width="360" height="320" rx="12" fill="rgba(255,255,255,0.03)" stroke="rgba(255,255,255,0.08)" stroke-width="1"/>

  <!-- Editor title bar -->
  <rect x="500" y="50" width="360" height="38" rx="12" fill="rgba(255,255,255,0.05)"/>
  <rect x="500" y="74" width="360" height="14" fill="rgba(255,255,255,0.05)"/>
  <!-- traffic light dots -->
  <circle cx="522" cy="69" r="5" fill="#ff5f57" opacity="0.7"/>
  <circle cx="540" cy="69" r="5" fill="#ffbd2e" opacity="0.7"/>
  <circle cx="558" cy="69" r="5" fill="#28c840" opacity="0.7"/>
  <!-- file tab -->
  <rect x="578" y="57" width="90" height="24" rx="4" fill="rgba(108,99,255,0.2)" stroke="rgba(108,99,255,0.3)" stroke-width="1"/>
  <text x="593" y="74" font-size="10" fill="#8b85ff">main.py</text>

  <!-- Code lines -->
  <g font-size="11.5" font-family="'Courier New', monospace">
    <!-- line 1 -->
    <text x="520" y="115" fill="#6c63ff">import</text>
    <text x="567" y="115" fill="#c8d0e0"> ai_assistant</text>
    <!-- line 2 -->
    <text x="520" y="135" fill="#00d4ff">from</text>
    <text x="548" y="135" fill="#c8d0e0"> codebase </text>
    <text x="617" y="135" fill="#6c63ff">import</text>
    <text x="664" y="135" fill="#c8d0e0"> context</text>
    <!-- blank -->
    <!-- line 4 -->
    <text x="520" y="168" fill="#4ea0ff">def</text>
    <text x="540" y="168" fill="#ffd580"> generate_code</text>
    <text x="650" y="168" fill="#c8d0e0">(prompt):</text>
    <!-- line 5 -->
    <text x="540" y="188" fill="#6b7a99"># analyse context</text>
    <!-- line 6 -->
    <text x="540" y="208" fill="#c8d0e0">result = </text>
    <text x="592" y="208" fill="#4ea0ff">ai_assistant</text>
    <text x="665" y="208" fill="#c8d0e0">.run(</text>
    <!-- line 7 -->
    <text x="560" y="228" fill="#ffd580">prompt</text>
    <text x="607" y="228" fill="#c8d0e0">=prompt,</text>
    <!-- line 8 -->
    <text x="560" y="248" fill="#ffd580">context</text>
    <text x="607" y="248" fill="#c8d0e0">=context)</text>
    <!-- line 9 -->
    <text x="540" y="278" fill="#6c63ff">return</text>
    <text x="578" y="278" fill="#c8d0e0"> result.validated()</text>
    <!-- line 10 - cursor line -->
    <rect x="519" y="296" width="220" height="18" rx="3" fill="rgba(108,99,255,0.1)"/>
    <text x="520" y="309" fill="#00d4ff">review</text>
    <text x="561" y="309" fill="#c8d0e0"> = senior_dev</text>
    <text x="650" y="309" fill="#c8d0e0">.check(</text>
    <!-- blinking cursor -->
    <rect x="700" y="297" width="2" height="14" fill="#00d4ff" opacity="0.9"/>
  </g>

  <!-- AI suggestion popup -->
  <rect x="530" y="330" width="310" height="28" rx="6" fill="rgba(0,212,255,0.08)" stroke="rgba(0,212,255,0.25)" stroke-width="1"/>
  <text x="543" y="349" font-size="10" fill="#00d4ff">✦ AI</text>
  <text x="567" y="349" font-size="10" fill="#8b96b5">Suggestion: add null check before .check()</text>

  <!-- Floating badge top-right -->
  <rect x="660" y="15" width="220" height="34" rx="17" fill="rgba(108,99,255,0.15)" stroke="rgba(108,99,255,0.3)" stroke-width="1"/>
  <text x="680" y="37" font-size="12" fill="#8b85ff" font-weight="bold">✦ AI-Assisted Development</text>

  <!-- Bottom gradient fade -->
  <rect x="0" y="370" width="900" height="50" rx="0" fill="url(#bgGrad)" opacity="0.6"/>
  <rect x="0" y="390" width="900" height="30" rx="0" fill="#0a0e1a" opacity="0.8"/>

  <!-- Animated pulse ring on key node (SVG static representation) -->
  <circle cx="440" cy="210" r="22" fill="none" stroke="#00d4ff" stroke-width="1" opacity="0.3"/>
  <circle cx="440" cy="210" r="32" fill="none" stroke="#00d4ff" stroke-width="0.5" opacity="0.15"/>
</svg>
