<svg viewBox="0 0 900 420" xmlns="http://www.w3.org/2000/svg">
  <defs>
    <linearGradient id="bgGrad" x1="0%" y1="0%" x2="100%" y2="100%">
      <stop offset="0%" style="stop-color:#0a0e1a"/>
      <stop offset="100%" style="stop-color:#0e1325"/>
    </linearGradient>
    <linearGradient id="purpleBlue" x1="0%" y1="0%" x2="100%" y2="100%">
      <stop offset="0%" style="stop-color:#6c63ff"/>
      <stop offset="100%" style="stop-color:#4ea0ff"/>
    </linearGradient>
    <linearGradient id="screenGrad" x1="0%" y1="0%" x2="0%" y2="100%">
      <stop offset="0%" style="stop-color:#1a1f35"/>
      <stop offset="100%" style="stop-color:#0d1125"/>
    </linearGradient>
    <linearGradient id="flutterGrad" x1="0%" y1="0%" x2="100%" y2="100%">
      <stop offset="0%" style="stop-color:#00d4ff;stop-opacity:0.9"/>
      <stop offset="100%" style="stop-color:#0084c8;stop-opacity:0.9"/>
    </linearGradient>
    <filter id="glow">
      <feGaussianBlur stdDeviation="3" result="blur"/>
      <feMerge><feMergeNode in="blur"/><feMergeNode in="SourceGraphic"/></feMerge>
    </filter>
    <filter id="softShadow" x="-10%" y="-10%" width="120%" height="120%">
      <feDropShadow dx="0" dy="8" stdDeviation="16" flood-color="#000000" flood-opacity="0.5"/>
    </filter>
    <clipPath id="phoneScreen1">
      <rect x="146" y="94" width="108" height="192" rx="4"/>
    </clipPath>
    <clipPath id="phoneScreen2">
      <rect x="396" y="94" width="108" height="192" rx="4"/>
    </clipPath>
  </defs>

  <!-- Background -->
  <rect width="900" height="420" rx="16" fill="url(#bgGrad)"/>

  <!-- Subtle dots pattern -->
  <g opacity="0.06" fill="#ffffff">
    <circle cx="60" cy="60" r="1.5"/><circle cx="120" cy="60" r="1.5"/><circle cx="180" cy="60" r="1.5"/><circle cx="240" cy="60" r="1.5"/><circle cx="300" cy="60" r="1.5"/><circle cx="360" cy="60" r="1.5"/><circle cx="420" cy="60" r="1.5"/><circle cx="480" cy="60" r="1.5"/><circle cx="540" cy="60" r="1.5"/><circle cx="600" cy="60" r="1.5"/><circle cx="660" cy="60" r="1.5"/><circle cx="720" cy="60" r="1.5"/><circle cx="780" cy="60" r="1.5"/><circle cx="840" cy="60" r="1.5"/>
    <circle cx="60" cy="120" r="1.5"/><circle cx="120" cy="120" r="1.5"/><circle cx="180" cy="120" r="1.5"/><circle cx="240" cy="120" r="1.5"/><circle cx="300" cy="120" r="1.5"/><circle cx="360" cy="120" r="1.5"/><circle cx="420" cy="120" r="1.5"/><circle cx="480" cy="120" r="1.5"/><circle cx="540" cy="120" r="1.5"/><circle cx="600" cy="120" r="1.5"/><circle cx="660" cy="120" r="1.5"/><circle cx="720" cy="120" r="1.5"/><circle cx="780" cy="120" r="1.5"/><circle cx="840" cy="120" r="1.5"/>
    <circle cx="60" cy="180" r="1.5"/><circle cx="120" cy="180" r="1.5"/><circle cx="180" cy="180" r="1.5"/><circle cx="240" cy="180" r="1.5"/><circle cx="300" cy="180" r="1.5"/><circle cx="360" cy="180" r="1.5"/><circle cx="420" cy="180" r="1.5"/><circle cx="480" cy="180" r="1.5"/><circle cx="540" cy="180" r="1.5"/><circle cx="600" cy="180" r="1.5"/><circle cx="660" cy="180" r="1.5"/><circle cx="720" cy="180" r="1.5"/><circle cx="780" cy="180" r="1.5"/><circle cx="840" cy="180" r="1.5"/>
    <circle cx="60" cy="240" r="1.5"/><circle cx="120" cy="240" r="1.5"/><circle cx="180" cy="240" r="1.5"/><circle cx="240" cy="240" r="1.5"/><circle cx="300" cy="240" r="1.5"/><circle cx="360" cy="240" r="1.5"/><circle cx="420" cy="240" r="1.5"/><circle cx="480" cy="240" r="1.5"/><circle cx="540" cy="240" r="1.5"/><circle cx="600" cy="240" r="1.5"/><circle cx="660" cy="240" r="1.5"/><circle cx="720" cy="240" r="1.5"/><circle cx="780" cy="240" r="1.5"/><circle cx="840" cy="240" r="1.5"/>
    <circle cx="60" cy="300" r="1.5"/><circle cx="120" cy="300" r="1.5"/><circle cx="180" cy="300" r="1.5"/><circle cx="240" cy="300" r="1.5"/><circle cx="300" cy="300" r="1.5"/><circle cx="360" cy="300" r="1.5"/><circle cx="420" cy="300" r="1.5"/><circle cx="480" cy="300" r="1.5"/><circle cx="540" cy="300" r="1.5"/><circle cx="600" cy="300" r="1.5"/><circle cx="660" cy="300" r="1.5"/><circle cx="720" cy="300" r="1.5"/><circle cx="780" cy="300" r="1.5"/><circle cx="840" cy="300" r="1.5"/>
    <circle cx="60" cy="360" r="1.5"/><circle cx="120" cy="360" r="1.5"/><circle cx="180" cy="360" r="1.5"/><circle cx="240" cy="360" r="1.5"/><circle cx="300" cy="360" r="1.5"/><circle cx="360" cy="360" r="1.5"/><circle cx="420" cy="360" r="1.5"/><circle cx="480" cy="360" r="1.5"/><circle cx="540" cy="360" r="1.5"/><circle cx="600" cy="360" r="1.5"/><circle cx="660" cy="360" r="1.5"/><circle cx="720" cy="360" r="1.5"/><circle cx="780" cy="360" r="1.5"/><circle cx="840" cy="360" r="1.5"/>
  </g>

  <!-- ===== LEFT PHONE (iOS style) ===== -->
  <g filter="url(#softShadow)">
    <!-- Phone body -->
    <rect x="136" y="68" width="128" height="244" rx="22" fill="#1a1f35" stroke="rgba(108,99,255,0.5)" stroke-width="2"/>
    <!-- Notch -->
    <rect x="175" y="68" width="50" height="18" rx="9" fill="#0a0e1a"/>
    <!-- Screen area -->
    <rect x="146" y="94" width="108" height="192" rx="4" fill="url(#screenGrad)"/>
    <!-- Home indicator -->
    <rect x="176" y="300" width="48" height="4" rx="2" fill="rgba(255,255,255,0.15)"/>
    <!-- Side button -->
    <rect x="264" y="130" width="4" height="40" rx="2" fill="rgba(255,255,255,0.1)"/>
    <!-- Volume buttons -->
    <rect x="132" y="125" width="4" height="26" rx="2" fill="rgba(255,255,255,0.1)"/>
    <rect x="132" y="160" width="4" height="26" rx="2" fill="rgba(255,255,255,0.1)"/>
  </g>

  <!-- Screen content — iOS App UI -->
  <g clip-path="url(#phoneScreen1)">
    <!-- Status bar -->
    <rect x="146" y="94" width="108" height="18" fill="rgba(0,0,0,0.3)"/>
    <text x="152" y="106" font-size="7" fill="#c8d0e0" font-family="'Inter', sans-serif">9:41</text>
    <!-- App header -->
    <rect x="146" y="112" width="108" height="28" fill="rgba(108,99,255,0.2)"/>
    <text x="200" y="130" font-size="9" fill="#fff" text-anchor="middle" font-family="'Inter', sans-serif" font-weight="bold">Dashboard</text>
    <!-- Stats row -->
    <rect x="152" y="146" width="44" height="34" rx="6" fill="rgba(0,212,255,0.12)" stroke="rgba(0,212,255,0.3)" stroke-width="1"/>
    <text x="174" y="160" font-size="8" fill="#00d4ff" text-anchor="middle" font-family="'Inter', sans-serif" font-weight="bold">98%</text>
    <text x="174" y="172" font-size="6" fill="#6b7a99" text-anchor="middle" font-family="'Inter', sans-serif">Uptime</text>
    <rect x="202" y="146" width="44" height="34" rx="6" fill="rgba(108,99,255,0.12)" stroke="rgba(108,99,255,0.3)" stroke-width="1"/>
    <text x="224" y="160" font-size="8" fill="#6c63ff" text-anchor="middle" font-family="'Inter', sans-serif" font-weight="bold">1.2s</text>
    <text x="224" y="172" font-size="6" fill="#6b7a99" text-anchor="middle" font-family="'Inter', sans-serif">Load</text>
    <!-- Chart bars -->
    <rect x="152" y="188" width="94" height="50" rx="6" fill="rgba(255,255,255,0.03)" stroke="rgba(255,255,255,0.06)" stroke-width="1"/>
    <text x="155" y="199" font-size="6" fill="#6b7a99" font-family="'Inter', sans-serif">Performance</text>
    <!-- bar chart -->
    <rect x="158" y="222" width="8" height="12" rx="1" fill="#6c63ff" opacity="0.7"/>
    <rect x="170" y="215" width="8" height="19" rx="1" fill="#6c63ff" opacity="0.8"/>
    <rect x="182" y="208" width="8" height="26" rx="1" fill="#6c63ff"/>
    <rect x="194" y="212" width="8" height="22" rx="1" fill="#6c63ff" opacity="0.9"/>
    <rect x="206" y="205" width="8" height="29" rx="1" fill="#00d4ff"/>
    <rect x="218" y="210" width="8" height="24" rx="1" fill="#6c63ff" opacity="0.85"/>
    <!-- Nav bar -->
    <rect x="146" y="258" width="108" height="28" fill="rgba(0,0,0,0.4)"/>
    <text x="165" y="276" font-size="14" text-anchor="middle" fill="#6c63ff">⌂</text>
    <text x="200" y="275" font-size="11" text-anchor="middle" fill="#6b7a99">◎</text>
    <text x="235" y="275" font-size="11" text-anchor="middle" fill="#6b7a99">⊕</text>
  </g>

  <!-- ===== CENTRE — Flutter logo / architecture diagram ===== -->
  <!-- Architecture layers -->
  <g transform="translate(310, 100)">
    <!-- Layer stack -->
    <rect x="0" y="0" width="80" height="32" rx="6" fill="rgba(0,212,255,0.12)" stroke="rgba(0,212,255,0.35)" stroke-width="1.5"/>
    <text x="40" y="21" font-size="9.5" fill="#00d4ff" text-anchor="middle" font-family="'Inter', sans-serif" font-weight="600">UI Layer</text>

    <line x1="40" y1="32" x2="40" y2="56" stroke="rgba(255,255,255,0.2)" stroke-width="1.5" stroke-dasharray="4 3"/>

    <rect x="0" y="56" width="80" height="32" rx="6" fill="rgba(108,99,255,0.12)" stroke="rgba(108,99,255,0.35)" stroke-width="1.5"/>
    <text x="40" y="77" font-size="9.5" fill="#8b85ff" text-anchor="middle" font-family="'Inter', sans-serif" font-weight="600">ViewModel</text>

    <line x1="40" y1="88" x2="40" y2="112" stroke="rgba(255,255,255,0.2)" stroke-width="1.5" stroke-dasharray="4 3"/>

    <rect x="0" y="112" width="80" height="32" rx="6" fill="rgba(78,160,255,0.12)" stroke="rgba(78,160,255,0.35)" stroke-width="1.5"/>
    <text x="40" y="133" font-size="9.5" fill="#4ea0ff" text-anchor="middle" font-family="'Inter', sans-serif" font-weight="600">Repository</text>

    <line x1="40" y1="144" x2="40" y2="168" stroke="rgba(255,255,255,0.2)" stroke-width="1.5" stroke-dasharray="4 3"/>

    <rect x="0" y="168" width="80" height="32" rx="6" fill="rgba(255,215,128,0.08)" stroke="rgba(255,215,128,0.3)" stroke-width="1.5"/>
    <text x="40" y="189" font-size="9.5" fill="#ffd580" text-anchor="middle" font-family="'Inter', sans-serif" font-weight="600">Data Source</text>

    <!-- Clean Architecture label -->
    <text x="40" y="232" font-size="8" fill="#6b7a99" text-anchor="middle" font-family="'Inter', sans-serif" letter-spacing="1">CLEAN ARCH</text>
  </g>

  <!-- ===== RIGHT PHONE (Android style) ===== -->
  <g filter="url(#softShadow)">
    <rect x="386" y="68" width="128" height="244" rx="16" fill="#1a1f35" stroke="rgba(0,212,255,0.45)" stroke-width="2"/>
    <!-- Camera bar top -->
    <rect x="386" y="68" width="128" height="22" rx="16" fill="rgba(0,0,0,0.3)"/>
    <circle cx="450" cy="79" r="5" fill="#0a0e1a" stroke="rgba(0,212,255,0.3)" stroke-width="1"/>
    <!-- Screen area -->
    <rect x="396" y="94" width="108" height="192" rx="4" fill="url(#screenGrad)"/>
    <!-- Bottom nav bar area -->
    <rect x="386" y="290" width="128" height="22" rx="0" fill="rgba(0,0,0,0.25)"/>
    <!-- Navigation gesture bar -->
    <rect x="424" y="302" width="52" height="3" rx="2" fill="rgba(255,255,255,0.1)"/>
    <!-- Side buttons -->
    <rect x="514" y="130" width="4" height="50" rx="2" fill="rgba(255,255,255,0.1)"/>
    <rect x="382" y="145" width="4" height="30" rx="2" fill="rgba(255,255,255,0.1)"/>
  </g>

  <!-- Screen content — Android app UI -->
  <g clip-path="url(#phoneScreen2)">
    <!-- Status bar -->
    <rect x="396" y="94" width="108" height="16" fill="rgba(0,0,0,0.25)"/>
    <text x="402" y="105" font-size="7" fill="#c8d0e0" font-family="'Inter', sans-serif">9:41</text>
    <!-- App bar material -->
    <rect x="396" y="110" width="108" height="36" fill="rgba(0,212,255,0.15)"/>
    <text x="450" y="133" font-size="9" fill="#fff" text-anchor="middle" font-family="'Inter', sans-serif" font-weight="bold">ZyoraTech</text>
    <!-- Offline badge -->
    <rect x="464" y="116" width="34" height="14" rx="7" fill="rgba(255,95,87,0.2)" stroke="rgba(255,95,87,0.4)" stroke-width="1"/>
    <text x="481" y="126" font-size="6.5" fill="#ff5f57" text-anchor="middle" font-family="'Inter', sans-serif">offline</text>
    <!-- List items -->
    <rect x="402" y="152" width="95" height="22" rx="4" fill="rgba(255,255,255,0.04)" stroke="rgba(255,255,255,0.06)" stroke-width="1"/>
    <rect x="407" y="158" width="10" height="10" rx="2" fill="rgba(108,99,255,0.5)"/>
    <rect x="423" y="159" width="45" height="4" rx="2" fill="rgba(255,255,255,0.15)"/>
    <rect x="423" y="165" width="30" height="3" rx="1.5" fill="rgba(255,255,255,0.07)"/>
    <rect x="402" y="180" width="95" height="22" rx="4" fill="rgba(255,255,255,0.04)" stroke="rgba(255,255,255,0.06)" stroke-width="1"/>
    <rect x="407" y="186" width="10" height="10" rx="2" fill="rgba(0,212,255,0.4)"/>
    <rect x="423" y="187" width="38" height="4" rx="2" fill="rgba(255,255,255,0.15)"/>
    <rect x="423" y="193" width="52" height="3" rx="1.5" fill="rgba(255,255,255,0.07)"/>
    <rect x="402" y="208" width="95" height="22" rx="4" fill="rgba(255,255,255,0.04)" stroke="rgba(255,255,255,0.06)" stroke-width="1"/>
    <rect x="407" y="214" width="10" height="10" rx="2" fill="rgba(78,160,255,0.4)"/>
    <rect x="423" y="215" width="55" height="4" rx="2" fill="rgba(255,255,255,0.15)"/>
    <rect x="423" y="221" width="28" height="3" rx="1.5" fill="rgba(255,255,255,0.07)"/>
    <!-- Sync queued banner -->
    <rect x="396" y="236" width="108" height="20" fill="rgba(255,189,46,0.1)" stroke="rgba(255,189,46,0.25)" stroke-width="1"/>
    <text x="450" y="249" font-size="6.5" fill="#ffbd2e" text-anchor="middle" font-family="'Inter', sans-serif">⏳ 3 changes queued to sync</text>
    <!-- FAB -->
    <circle cx="481" cy="272" r="14" fill="url(#flutterGrad)" filter="url(#glow)"/>
    <text x="481" y="277" font-size="14" fill="#fff" text-anchor="middle">+</text>
  </g>

  <!-- ===== RIGHT SIDE — Principles badges ===== -->
  <g font-family="'Inter', sans-serif">
    <!-- Badge 1 -->
    <rect x="560" y="80" width="300" height="46" rx="10" fill="rgba(255,255,255,0.03)" stroke="rgba(108,99,255,0.2)" stroke-width="1"/>
    <rect x="570" y="94" width="24" height="18" rx="4" fill="rgba(108,99,255,0.2)"/>
    <text x="582" y="107" font-size="9" fill="#6c63ff" text-anchor="middle" font-weight="bold">01</text>
    <text x="604" y="101" font-size="9.5" fill="#c8d0e0" font-weight="600">Decouple UI from Business Logic</text>
    <text x="604" y="116" font-size="8" fill="#6b7a99">MVVM · Clean Architecture · BLoC</text>

    <!-- Badge 2 -->
    <rect x="560" y="138" width="300" height="46" rx="10" fill="rgba(255,255,255,0.03)" stroke="rgba(0,212,255,0.2)" stroke-width="1"/>
    <rect x="570" y="152" width="24" height="18" rx="4" fill="rgba(0,212,255,0.15)"/>
    <text x="582" y="165" font-size="9" fill="#00d4ff" text-anchor="middle" font-weight="bold">02</text>
    <text x="604" y="159" font-size="9.5" fill="#c8d0e0" font-weight="600">Version Your API from Day One</text>
    <text x="604" y="174" font-size="8" fill="#6b7a99">/v1/ prefix · avoid breaking changes</text>

    <!-- Badge 3 -->
    <rect x="560" y="196" width="300" height="46" rx="10" fill="rgba(255,255,255,0.03)" stroke="rgba(78,160,255,0.2)" stroke-width="1"/>
    <rect x="570" y="210" width="24" height="18" rx="4" fill="rgba(78,160,255,0.15)"/>
    <text x="582" y="223" font-size="9" fill="#4ea0ff" text-anchor="middle" font-weight="bold">03</text>
    <text x="604" y="217" font-size="9.5" fill="#c8d0e0" font-weight="600">Profile Early — Real Device Hardware</text>
    <text x="604" y="232" font-size="8" fill="#6b7a99">Flutter DevTools · Android Profiler</text>

    <!-- Badge 4 -->
    <rect x="560" y="254" width="300" height="46" rx="10" fill="rgba(255,255,255,0.03)" stroke="rgba(255,215,128,0.2)" stroke-width="1"/>
    <rect x="570" y="268" width="24" height="18" rx="4" fill="rgba(255,215,128,0.1)"/>
    <text x="582" y="281" font-size="9" fill="#ffd580" text-anchor="middle" font-weight="bold">04</text>
    <text x="604" y="275" font-size="9.5" fill="#c8d0e0" font-weight="600">Design for Offline — Not Optional</text>
    <text x="604" y="290" font-size="8" fill="#6b7a99">Queue writes · optimistic UI updates</text>

    <!-- Badge 5 -->
    <rect x="560" y="312" width="300" height="46" rx="10" fill="rgba(255,255,255,0.03)" stroke="rgba(40,200,64,0.2)" stroke-width="1"/>
    <rect x="570" y="326" width="24" height="18" rx="4" fill="rgba(40,200,64,0.1)"/>
    <text x="582" y="339" font-size="9" fill="#28c840" text-anchor="middle" font-weight="bold">05</text>
    <text x="604" y="333" font-size="9.5" fill="#c8d0e0" font-weight="600">Instrument Before Launch</text>
    <text x="604" y="348" font-size="8" fill="#6b7a99">Crashlytics · Sentry · analytics</text>
  </g>

  <!-- Flutter wordmark top right -->
  <rect x="660" y="15" width="210" height="34" rx="17" fill="rgba(0,212,255,0.12)" stroke="rgba(0,212,255,0.3)" stroke-width="1"/>
  <text x="677" y="37" font-size="12" fill="#00d4ff" font-weight="bold" font-family="'Inter', sans-serif">✦ Scalable Mobile Apps</text>

  <!-- Bottom fade -->
  <rect x="0" y="385" width="900" height="35" fill="url(#bgGrad)" opacity="0.9"/>
  <!-- Watermark -->
  <text x="888" y="413" font-family="sans-serif" font-size="11" fill="#ffffff" opacity="0.18" text-anchor="end">© ZyoraTech</text>
</svg>
